<svg xmlns="http://www.w3.org/2000/svg" viewBox="0 0 370.5 370.5"><defs><style>.a{fill:#bbbcbe;}</style></defs><path class="a" d="M185.2,0C83.1,0,0,83.1,0,185.2S83.1,370.5,185.2,370.5s185.3-83.1,185.3-185.3S287.4,0,185.2,0ZM121.4,35.5C107.9,51.7,96.8,72.9,89,97.8H48.1A163,163,0,0,1,121.4,35.5Zm-15,84.7H174V250.3H106.4a274.4,274.4,0,0,1-7.7-65h0A274.4,274.4,0,0,1,106.4,120.2Zm-84,65a160.4,160.4,0,0,1,13.7-65H83.2a310.1,310.1,0,0,0,0,130.1H36.1A160.5,160.5,0,0,1,22.4,185.2Zm25.7,87.6H89c7.8,24.8,18.9,46,32.4,62.2A163.5,163.5,0,0,1,48.1,272.8Zm126,72.4c-25.3-6.4-47.4-33.9-61.1-72.5h61.1Zm0-247.4H113c13.7-38.6,35.8-66.1,61.1-72.5Zm148.3,0H281.5c-7.8-24.9-18.9-46.1-32.4-62.3A163,163,0,0,1,322.4,97.8Zm-126-72.5c25.3,6.4,47.4,33.9,61.1,72.5H196.4Zm0,94.9h67.7a274.4,274.4,0,0,1,7.7,65,274.6,274.6,0,0,1-7.7,65.1H196.4Zm0,225V272.7h61.1C243.8,311.3,221.7,338.8,196.4,345.2ZM249.1,335c13.5-16.2,24.6-37.4,32.4-62.2h40.9A163.5,163.5,0,0,1,249.1,335Zm38.2-84.7a305.1,305.1,0,0,0,6.9-65.1,304.9,304.9,0,0,0-6.9-65h47.1a161.3,161.3,0,0,1,0,130.1Z"/></svg>