<?xml version="1.0" encoding="utf-8"?>
<!-- Generator: Adobe Illustrator 25.4.1, SVG Export Plug-In . SVG Version: 6.00 Build 0)  -->
<svg version="1.1"
	 id="svg2" xmlns:cc="http://creativecommons.org/ns#" xmlns:dc="http://purl.org/dc/elements/1.1/" xmlns:inkscape="http://www.inkscape.org/namespaces/inkscape" xmlns:rdf="http://www.w3.org/1999/02/22-rdf-syntax-ns#" xmlns:sodipodi="http://sodipodi.sourceforge.net/DTD/sodipodi-0.dtd" xmlns:svg="http://www.w3.org/2000/svg"
	 xmlns="http://www.w3.org/2000/svg" xmlns:xlink="http://www.w3.org/1999/xlink" x="0px" y="0px" viewBox="0 0 535 110.5"
	 style="enable-background:new 0 0 535 110.5;" xml:space="preserve">
<style type="text/css">
	.st0{fill:#FFFFFF;}
	.st1{fill:#007BC0;}
</style>
<circle class="st0" cx="55.5" cy="53.5" r="48.3"/>
<sodipodi:namedview  bordercolor="#666666" borderopacity="1" fit-margin-bottom="0" fit-margin-left="0" fit-margin-right="0" fit-margin-top="0" gridtolerance="10" guidetolerance="10" id="namedview12" inkscape:current-layer="g8" inkscape:cx="60.969416" inkscape:cy="65.212452" inkscape:pageopacity="0" inkscape:pageshadow="2" inkscape:window-height="1004" inkscape:window-maximized="1" inkscape:window-width="1280" inkscape:window-x="-8" inkscape:window-y="-8" inkscape:zoom="5.5529412" objecttolerance="10" pagecolor="#ffffff" showgrid="false">
	</sodipodi:namedview>
<g id="g6" transform="translate(-29.809,-29.81)">
	<g id="g8">
		<path id="path10" inkscape:connector-curvature="0" class="st1" d="M86.3,109.7h-2.1v4.3h2.1c1.4,0,1.9-1.1,1.9-2.2
			C88.3,110.7,87.8,109.7,86.3,109.7z M85,29.8c-30.5,0-55.2,24.7-55.2,55.2c0,30.5,24.7,55.2,55.2,55.2c30.5,0,55.2-24.7,55.2-55.2
			C140.3,54.5,115.5,29.8,85,29.8z M85.3,45.4c4.4,0,7.9,3.5,7.9,7.9s-3.5,7.9-7.9,7.9c-4.4,0-7.9-3.5-7.9-7.9S80.9,45.4,85.3,45.4z
			 M85.3,64.1c4.4,0,7.9,3.5,7.9,7.9c0,4.4-3.5,7.9-7.9,7.9c-4.4,0-7.9-3.5-7.9-7.9C77.4,67.6,80.9,64.1,85.3,64.1z M66.1,45.4
			c4.4,0,7.9,3.5,7.9,7.9s-3.5,7.9-7.9,7.9c-4.4,0-7.9-3.5-7.9-7.9S61.7,45.4,66.1,45.4z M66.1,64.1c4.4,0,7.9,3.5,7.9,7.9
			c0,4.4-3.5,7.9-7.9,7.9c-4.4,0-7.9-3.5-7.9-7.9C58.2,67.6,61.7,64.1,66.1,64.1z M66.1,83.3c4.4,0,7.9,3.5,7.9,7.9
			c0,4.4-3.5,7.9-7.9,7.9c-4.4,0-7.9-3.5-7.9-7.9C58.2,86.8,61.7,83.3,66.1,83.3z M75.4,116.8c0,1.9-0.1,4.3-2.6,6.1
			c-1.7,1.2-3.6,1.4-5.4,1.4c-1.8,0-3.7-0.2-5.4-1.4c-2.5-1.8-2.6-4.2-2.6-6.1v-11.1h5.3v11.1c0,1.1,0.1,1.9,0.9,2.5
			c0.6,0.5,1,0.6,1.8,0.6c0.7,0,1.2-0.2,1.8-0.6c0.8-0.7,0.9-1.5,0.9-2.5v-11.1h5.3L75.4,116.8L75.4,116.8z M85.3,83.3
			c4.4,0,7.9,3.5,7.9,7.9c0,4.4-3.5,7.9-7.9,7.9c-4.4,0-7.9-3.5-7.9-7.9C77.4,86.8,80.9,83.3,85.3,83.3z M90.9,117
			c-1,0.7-2.2,1-5.1,1l-1.5,0v6h-4.6v-18.2h7.6c3.7,0,6,2.2,6,6.3C93.3,114.1,92.4,116,90.9,117z M109.9,111.2
			c-1.8-1.5-2.5-1.4-3.9-1.4c-2.8,0-4.7,2.1-4.7,5.1c0,3,1.9,5.1,4.7,5.1c1.5,0,2.2-0.2,3.9-1.4v4.7c-1.7,0.9-2.7,1.1-4.4,1.1
			c-5.5,0-9.4-3.9-9.4-9.5c0-5.5,4-9.6,9.3-9.6c1.6,0,2.7,0.3,4.5,1.1C109.9,106.5,109.9,111.2,109.9,111.2z M104,99
			c-4.4,0-7.9-3.5-7.9-7.9c0-4.4,3.5-7.9,7.9-7.9c4.3,0,7.9,3.5,7.9,7.9C111.9,95.5,108.3,99,104,99z M104,79.9
			c-4.4,0-7.9-3.5-7.9-7.9c0-4.4,3.5-7.9,7.9-7.9c4.3,0,7.9,3.5,7.9,7.9C111.9,76.3,108.3,79.9,104,79.9z M104,61.2
			c-4.4,0-7.9-3.5-7.9-7.9s3.5-7.9,7.9-7.9c4.3,0,7.9,3.5,7.9,7.9S108.3,61.2,104,61.2z"/>
	</g>
</g>
<g>
	<path class="st0" d="M153.3,27.7c0,5-2.4,7.5-7.2,7.5c-4.9,0-7.3-2.5-7.2-7.5V17.6h4.3v10.3c0,2.2,0.9,3.4,2.9,3.4s3-1.1,2.9-3.4
		V17.6h4.3V27.7z"/>
	<path class="st0" d="M159.2,17.6h4.5l5.8,10.6h0V17.6h4.1v17.2h-4.5l-5.8-10.7h0v10.7h-4.1V17.6z"/>
	<path class="st0" d="M179.5,17.6h4.3v17.2h-4.3V17.6z"/>
	<path class="st0" d="M198,34.8h-5l-5.2-17.2h4.5l3.3,12.8h0.1l3.3-12.8h4.5L198,34.8z"/>
	<path class="st0" d="M207.5,17.6h13.3v3.6h-8.9v3h8.2v3.5h-8.2v3.3h9.2v3.9h-13.5V17.6z"/>
	<path class="st0" d="M226.5,17.6h8.5c1.5,0,2.9,0.4,4,1.1c1.2,0.8,1.8,2,1.8,3.7c0,0.9-0.2,1.8-0.6,2.6c-0.4,0.8-1.1,1.4-2,1.8v0
		c0.5,0.1,0.8,0.3,1.2,0.6c0.3,0.3,0.6,0.6,0.8,1c0.4,0.8,0.6,1.7,0.6,2.5c0,0.4,0.1,1.1,0.2,2c0.1,0.4,0.1,0.8,0.2,1.1
		c0.1,0.4,0.2,0.6,0.3,0.8H237c-0.1-0.1-0.2-0.3-0.2-0.6c0-0.3-0.1-0.5-0.1-0.8c-0.1-0.6-0.1-1-0.1-1.3c0-0.5-0.1-0.9-0.1-1.3
		c-0.1-0.4-0.2-0.8-0.3-1.1c-0.2-0.3-0.4-0.6-0.7-0.8c-0.3-0.2-0.7-0.3-1.3-0.3h-3.3v6.3h-4.3V17.6z M230.8,25.1h3.6
		c1.3,0,2-0.7,2-2c0-0.6-0.2-1.1-0.6-1.4c-0.4-0.3-0.9-0.4-1.6-0.4h-3.5V25.1z"/>
	<path class="st0" d="M249.6,29c0.1,1,0.4,1.7,0.9,2.1c0.6,0.4,1.3,0.6,2.2,0.6c0.4,0,0.7,0,1-0.1c0.3-0.1,0.6-0.2,0.8-0.3
		c0.5-0.3,0.8-0.7,0.8-1.4c0-0.4-0.1-0.7-0.4-1c-0.3-0.3-0.6-0.5-1.1-0.6c-1-0.3-2.1-0.6-3.3-0.9c-1.2-0.3-2.4-0.9-3.3-1.6
		c-1-0.7-1.5-1.9-1.6-3.4c0-0.9,0.2-1.8,0.6-2.4c0.4-0.7,0.9-1.2,1.6-1.6c1.4-0.8,2.9-1.2,4.5-1.2c1.7,0,3.2,0.4,4.6,1.3
		c0.6,0.4,1.1,1,1.5,1.7c0.4,0.7,0.5,1.5,0.6,2.5h-4.3c0-0.8-0.3-1.3-0.8-1.6c-0.5-0.3-1.2-0.4-1.9-0.4c-0.5,0-1,0.1-1.4,0.3
		c-0.5,0.2-0.7,0.6-0.7,1.2c0,0.3,0.1,0.6,0.4,0.8c0.3,0.2,0.6,0.4,1.1,0.6c0.5,0.1,1,0.3,1.6,0.4c0.3,0.1,0.6,0.1,0.9,0.2
		c0.3,0.1,0.6,0.2,0.9,0.3c1.3,0.3,2.4,0.8,3.3,1.6c0.4,0.4,0.8,0.9,1.1,1.4c0.3,0.6,0.4,1.2,0.4,2c0,2.1-0.8,3.7-2.2,4.5
		c-1.4,0.9-3.1,1.3-5,1.3c-2,0-3.7-0.5-5-1.4c-1.4-1-2.1-2.5-2.2-4.7H249.6z"/>
	<path class="st0" d="M264.8,17.6h4.3v17.2h-4.3V17.6z"/>
	<path class="st0" d="M288,21.4h-5v13.3h-4.3V21.4h-5v-3.9H288V21.4z"/>
	<path class="st0" d="M295.1,17.6h4.4l6.2,17.2h-4.5l-1-3.1h-5.8l-1,3.1h-4.5L295.1,17.6z M295.4,28.4h3.8l-1.8-6h0L295.4,28.4z"/>
	<path class="st0" d="M321,21.4h-5v13.3h-4.3V21.4h-5v-3.9H321V21.4z"/>
	<path class="st0" d="M335.8,17.6h7.9c1.6,0,3,0.4,4.2,1.2c1.2,0.9,1.8,2.3,1.8,4.3c-0.1,4-2.1,6-6,5.9h-3.6v5.7h-4.3V17.6z
		 M340.1,25.6h2.9c0.7,0,1.2-0.2,1.7-0.5c0.4-0.3,0.7-0.9,0.7-1.7c0-0.8-0.2-1.4-0.7-1.8c-0.4-0.3-1-0.5-1.7-0.5h-2.9V25.6z"/>
	<path class="st0" d="M354.1,26.2c0-2.6,0.7-4.7,2.1-6.4c1.4-1.7,3.4-2.6,6.1-2.6c2.6,0,4.7,0.9,6.1,2.6c1.4,1.7,2.1,3.8,2.1,6.4
		c0,2.5-0.7,4.7-2.1,6.4c-1.4,1.7-3.4,2.6-6.1,2.6c-2.6,0-4.6-0.9-6.1-2.6C354.8,30.8,354.1,28.7,354.1,26.2z M358.4,26.2
		c0,1.3,0.3,2.5,0.9,3.5c0.6,1,1.6,1.6,3,1.6c1.4,0,2.4-0.6,3-1.6c0.6-1,0.9-2.2,0.9-3.5c0-1.3-0.3-2.5-0.9-3.5
		c-0.6-1-1.6-1.6-3-1.6c-1.4,0-2.4,0.6-3,1.6C358.7,23.6,358.4,24.8,358.4,26.2z"/>
	<path class="st0" d="M375.9,17.6h4.3v13.3h7.8v3.9h-12.1V17.6z"/>
	<path class="st0" d="M393,17.6h4.3v17.2H393V17.6z"/>
	<path class="st0" d="M416.2,21.4h-5v13.3h-4.3V21.4h-5v-3.9h14.3V21.4z"/>
	<path class="st0" d="M421.1,17.6h13.3v3.6h-8.9v3h8.2v3.5h-8.2v3.3h9.2v3.9h-13.5V17.6z M430,16.5h-2.8l-3.7-3.6h4.2L430,16.5z"/>
	<path class="st0" d="M451,23.7c-0.1-0.9-0.5-1.5-1.1-2c-0.6-0.4-1.4-0.6-2.3-0.6c-1.4,0-2.4,0.6-3,1.6c-0.6,1-0.9,2.2-0.9,3.5
		c0,1.3,0.3,2.5,0.9,3.5c0.6,1,1.6,1.6,3,1.6c2.1,0,3.2-1.1,3.4-3.2h4.3c-0.2,2.2-0.9,4-2.3,5.2c-1.4,1.2-3.2,1.8-5.3,1.9
		c-2.5,0-4.6-0.9-6-2.6c-1.5-1.7-2.2-3.8-2.3-6.4c0-2.6,0.8-4.7,2.3-6.4c1.5-1.7,3.5-2.6,6-2.6c1.9,0,3.6,0.6,5.1,1.7
		c1.5,1.1,2.3,2.7,2.5,4.8H451z"/>
	<path class="st0" d="M460.7,17.6h4.5l5.8,10.6h0V17.6h4.1v17.2h-4.5l-5.8-10.7h0v10.7h-4.1V17.6z"/>
	<path class="st0" d="M481,17.6h4.3v17.2H481V17.6z"/>
	<path class="st0" d="M502,23.7c-0.1-0.9-0.5-1.5-1.1-2c-0.6-0.4-1.4-0.6-2.3-0.6c-1.4,0-2.4,0.6-3,1.6c-0.6,1-0.9,2.2-0.9,3.5
		c0,1.3,0.3,2.5,0.9,3.5c0.6,1,1.6,1.6,3,1.6c2.1,0,3.2-1.1,3.4-3.2h4.3c-0.2,2.2-0.9,4-2.3,5.2c-1.4,1.2-3.2,1.8-5.3,1.9
		c-2.5,0-4.6-0.9-6-2.6c-1.5-1.7-2.2-3.8-2.3-6.4c0-2.6,0.8-4.7,2.3-6.4c1.5-1.7,3.5-2.6,6-2.6c1.9,0,3.6,0.6,5.1,1.7
		c1.5,1.1,2.3,2.7,2.5,4.8H502z"/>
	<path class="st0" d="M516.2,17.6h4.4l6.2,17.2h-4.5l-1-3.1h-5.8l-1,3.1H510L516.2,17.6z M516.5,28.4h3.8l-1.8-6h0L516.5,28.4z"/>
	<path class="st0" d="M139,46.5h7.2c5.3,0.1,8.1,2.9,8.2,8.5c-0.1,5.7-2.8,8.6-8.2,8.7H139V46.5z M143.3,59.8h2.1
		c3.1,0.1,4.7-1.5,4.6-4.8c0-3.1-1.6-4.6-4.6-4.6h-2.1V59.8z"/>
	<path class="st0" d="M159.7,46.5h13.3v3.6H164v3h8.2v3.5H164v3.3h9.2v3.9h-13.5V46.5z"/>
	<path class="st0" d="M199.6,52.6c-0.1-0.9-0.5-1.5-1.1-2c-0.6-0.4-1.4-0.6-2.3-0.6c-1.4,0-2.4,0.6-3,1.6c-0.6,1-0.9,2.2-0.9,3.5
		c0,1.3,0.3,2.5,0.9,3.5c0.6,1,1.6,1.6,3,1.6c2.1,0,3.2-1.1,3.4-3.2h4.3c-0.2,2.2-0.9,4-2.3,5.2c-1.4,1.2-3.2,1.8-5.3,1.9
		c-2.5,0-4.6-0.9-6-2.6c-1.5-1.7-2.2-3.8-2.3-6.4c0-2.6,0.8-4.7,2.3-6.4c1.5-1.7,3.5-2.6,6-2.6c1.9,0,3.6,0.6,5.1,1.7
		c1.5,1.1,2.3,2.7,2.5,4.8H199.6z"/>
	<path class="st0" d="M213.8,46.5h4.4l6.2,17.2h-4.5l-1-3.1h-5.8l-1,3.1h-4.5L213.8,46.5z M214.1,57.3h3.8l-1.8-6h0L214.1,57.3z"/>
	<path class="st0" d="M239.7,50.3h-5v13.3h-4.3V50.3h-5v-3.9h14.3V50.3z"/>
	<path class="st0" d="M246.8,46.5h4.4l6.2,17.2h-4.5l-1-3.1h-5.8l-1,3.1h-4.5L246.8,46.5z M247.1,57.3h3.8l-1.8-6h0L247.1,57.3z"/>
	<path class="st0" d="M261.7,46.5h4.3v13.3h7.8v3.9h-12.1V46.5z"/>
	<path class="st0" d="M293.2,56.6c0,5-2.4,7.5-7.2,7.5c-4.9,0-7.3-2.5-7.2-7.5V46.5h4.3v10.3c0,2.2,0.9,3.4,2.9,3.4s3-1.1,2.9-3.4
		V46.5h4.3V56.6z"/>
	<path class="st0" d="M299,46.5h4.5l5.8,10.6h0V46.5h4.1v17.2h-4.5L303.1,53h0v10.7H299V46.5z"/>
	<path class="st0" d="M327.8,57.3v6.4h-4.3v-6.4l-6.1-10.8h4.9l3.3,7l3.3-7h4.9L327.8,57.3z"/>
	<path class="st0" d="M340.6,46.5h4.4l6.2,17.2h-4.5l-1-3.1h-5.8l-1,3.1h-4.5L340.6,46.5z M340.8,57.3h3.8l-1.8-6h0L340.8,57.3z"/>
	<path class="st0" d="M139.2,79.2h7.7c1.4,0,2.6,0.3,3.4,1c0.8,0.7,1.3,1.7,1.3,3.1c0,1.7-0.8,2.8-2.3,3.5v0c2,0.5,3,1.9,3,4.2
		c0,1.3-0.5,2.4-1.4,3.2c-0.9,0.9-2.4,1.3-4.5,1.3h-7.3V79.2z M142,86.1h4.5c0.7,0,1.2-0.2,1.7-0.6c0.4-0.4,0.6-0.9,0.6-1.7
		c0-1.5-0.8-2.3-2.3-2.3H142V86.1z M142,93.3h4.9c1.8,0,2.6-0.9,2.7-2.6c0-1.7-0.9-2.5-2.7-2.5H142V93.3z"/>
	<path class="st0" d="M161.9,79.2h3l6.1,16.4h-3l-1.5-4.3h-6.4l-1.5,4.3h-2.9L161.9,79.2z M161,89.1h4.9l-2.4-7.1h-0.1L161,89.1z"/>
	<path class="st0" d="M175.4,79.2h7.6c3.5,0,5.2,1.5,5.3,4.4c0,0.8-0.1,1.4-0.3,1.9c-0.2,0.5-0.5,0.9-0.8,1.3
		c-0.3,0.3-0.6,0.5-0.9,0.7c-0.3,0.2-0.5,0.3-0.7,0.3v0c0.3,0,0.5,0.1,0.8,0.2c0.3,0.1,0.6,0.3,0.8,0.6c0.3,0.2,0.5,0.6,0.6,1
		c0.1,0.4,0.2,1,0.2,1.6c0,1,0.1,1.8,0.2,2.6c0.1,0.8,0.4,1.3,0.7,1.7h-3c-0.2-0.4-0.3-0.8-0.4-1.2c-0.1-0.4-0.1-0.8-0.1-1.2
		c0-1.5-0.2-2.6-0.6-3.3c-0.5-0.7-1.3-1-2.6-1h-4.1v6.8h-2.8V79.2z M178.1,86.7h4.6c1.8,0,2.7-0.9,2.7-2.6c0-0.5-0.1-1-0.2-1.3
		c-0.2-0.3-0.4-0.6-0.6-0.7c-0.2-0.2-0.5-0.3-0.9-0.4c-0.3-0.1-0.7-0.1-1.1-0.1h-4.5V86.7z"/>
	<path class="st0" d="M204.6,84.5c-0.2-1-0.6-1.8-1.3-2.4c-0.6-0.6-1.5-0.9-2.7-0.9c-1.7,0-2.9,0.7-3.7,1.9
		c-0.8,1.2-1.2,2.7-1.2,4.3c0,1.6,0.4,3.1,1.2,4.3c0.8,1.3,2,1.9,3.7,2c1.2,0,2.2-0.4,2.9-1.3c0.7-0.8,1.1-1.8,1.2-3h2.7
		c-0.1,2-0.8,3.6-2,4.8c-1.2,1.2-2.8,1.8-4.8,1.9c-2.4,0-4.3-0.9-5.6-2.5c-1.3-1.6-2-3.7-2-6.1c0-2.4,0.7-4.5,2-6.1
		c1.3-1.7,3.2-2.5,5.6-2.5c1.8,0,3.4,0.5,4.6,1.5c1.2,1,1.9,2.4,2.1,4.1H204.6z"/>
	<path class="st0" d="M212.8,79.2h11.4v2.5h-8.7V86h8v2.3h-8v4.8h8.8v2.5h-11.6V79.2z"/>
	<path class="st0" d="M229.6,79.2h2.8v13.9h8.1v2.5h-10.9V79.2z"/>
	<path class="st0" d="M251.9,78.9c2.4,0,4.3,0.9,5.6,2.5c1.3,1.6,2,3.7,2,6.1c0,2.4-0.7,4.4-2,6.1c-1.3,1.7-3.2,2.5-5.6,2.5
		c-2.4,0-4.3-0.9-5.6-2.5c-1.4-1.6-2-3.7-2-6.1c0-2.4,0.7-4.5,2-6.1C247.6,79.7,249.5,78.9,251.9,78.9z M251.9,81.2
		c-1.7,0-2.9,0.7-3.7,1.9c-0.8,1.2-1.2,2.7-1.2,4.3c0,1.6,0.4,3.1,1.2,4.3c0.8,1.3,2,1.9,3.7,2c0.9,0,1.6-0.2,2.2-0.6
		c0.6-0.4,1.1-0.8,1.5-1.4c0.8-1.2,1.1-2.7,1.1-4.3c0-1.7-0.4-3.1-1.1-4.3C254.8,81.9,253.6,81.2,251.9,81.2z"/>
	<path class="st0" d="M264.8,79.2h2.9l7.3,12.1h0V79.2h2.6v16.4h-2.9l-7.2-12.1h-0.1v12.1h-2.6V79.2z"/>
	<path class="st0" d="M288.1,79.2h3l6.1,16.4h-3l-1.5-4.3h-6.4l-1.5,4.3H282L288.1,79.2z M287.1,89.1h4.9l-2.4-7.1h-0.1L287.1,89.1z
		"/>
	<path class="st0" d="M313.9,82.9h-4.8v12.7H305V82.9h-4.7v-3.7h13.6V82.9z"/>
	<path class="st0" d="M318.5,79.2h12.7v3.4h-8.5v2.9h7.8v3.3h-7.8V92h8.8v3.7h-12.9V79.2z"/>
	<path class="st0" d="M347.1,85.1c-0.1-0.8-0.5-1.5-1-1.9c-0.6-0.4-1.3-0.6-2.2-0.6c-1.3,0-2.3,0.5-2.8,1.5c-0.6,1-0.9,2.1-0.9,3.4
		c0,1.3,0.3,2.4,0.9,3.4c0.6,1,1.5,1.5,2.8,1.5c2,0,3-1,3.2-3h4.1c-0.2,2.1-0.9,3.8-2.2,5c-1.3,1.2-3,1.8-5.1,1.8
		c-2.4,0-4.4-0.9-5.8-2.5c-1.4-1.6-2.2-3.6-2.2-6.1c0-2.5,0.7-4.5,2.2-6.1c1.4-1.6,3.3-2.5,5.8-2.5c1.8,0,3.4,0.5,4.9,1.6
		c1.4,1.1,2.2,2.6,2.4,4.6H347.1z"/>
	<path class="st0" d="M356.3,79.2h4.1v6h5.5v-6h4.1v16.4h-4.1v-6.8h-5.5v6.8h-4.1V79.2z"/>
</g>
</svg>
